<svg width="1259" height="1259" viewBox="0 0 1259 1259" fill="none" xmlns="http://www.w3.org/2000/svg">
<path d="M979.222 139.889H419.667C401.116 139.889 383.326 147.258 370.208 160.375C357.091 173.492 349.722 191.283 349.722 209.833V454.639H646.986L528.78 339.58C523.051 332.89 520.057 324.284 520.397 315.483C520.737 306.681 524.385 298.332 530.614 292.103C536.842 285.875 545.191 282.226 553.993 281.886C562.795 281.546 571.401 284.54 578.091 290.269L780.58 492.759L578.091 695.248C571.401 700.977 562.795 703.971 553.993 703.631C545.191 703.291 536.842 699.642 530.614 693.414C524.385 687.186 520.737 678.836 520.397 670.035C520.057 661.233 523.051 652.627 528.78 645.937L646.986 524.583H349.722V1049.17C349.722 1067.72 357.091 1085.51 370.208 1098.62C383.326 1111.74 401.116 1119.11 419.667 1119.11H979.222C997.773 1119.11 1015.56 1111.74 1028.68 1098.62C1041.8 1085.51 1049.17 1067.72 1049.17 1049.17V209.833C1049.17 191.283 1041.8 173.492 1028.68 160.375C1015.56 147.258 997.773 139.889 979.222 139.889V139.889Z" fill="#222222"/>
<path d="M349.722 454.639H139.889C130.614 454.639 121.718 458.323 115.16 464.882C108.601 471.441 104.917 480.336 104.917 489.611C104.917 498.886 108.601 507.782 115.16 514.34C121.718 520.899 130.614 524.583 139.889 524.583H349.722V454.639Z" fill="#222222"/>
</svg>
